<svg width="18" height="17" viewBox="0 0 18 17" fill="none" xmlns="http://www.w3.org/2000/svg">
<path d="M2.53018 16.8944H14.7425C16.1377 16.8944 17.2727 15.792 17.2727 14.4369V2.57582C17.2727 1.22079 16.1377 0.118408 14.7425 0.118408H2.53018C1.13502 0.118408 0 1.22079 0 2.57582V14.4369C0 15.792 1.13502 16.8944 2.53018 16.8944ZM1.01207 2.57582C1.01207 1.76283 1.69311 1.10137 2.53018 1.10137H14.7425C15.5796 1.10137 16.2606 1.76283 16.2606 2.57582V14.4369C16.2606 15.2499 15.5796 15.9114 14.7425 15.9114H2.53018C1.69311 15.9114 1.01207 15.2499 1.01207 14.4369V2.57582Z" fill="white"/>
</svg>
