<svg width="63" height="11" viewBox="0 0 63 11" fill="none" xmlns="http://www.w3.org/2000/svg">
<path d="M0.155273 10V0.046875H3.40918C4.48926 0.046875 5.30046 0.270182 5.84277 0.716797C6.38965 1.16341 6.66309 1.82422 6.66309 2.69922C6.66309 3.16406 6.53092 3.5765 6.2666 3.93652C6.00228 4.29199 5.64225 4.56771 5.18652 4.76367C5.72428 4.91406 6.14811 5.20117 6.45801 5.625C6.77246 6.04427 6.92969 6.54557 6.92969 7.12891C6.92969 8.02214 6.6403 8.72396 6.06152 9.23438C5.48275 9.74479 4.66471 10 3.60742 10H0.155273ZM1.46777 5.34473V8.92676H3.63477C4.24544 8.92676 4.72624 8.76953 5.07715 8.45508C5.43262 8.13607 5.61035 7.69857 5.61035 7.14258C5.61035 5.94401 4.95866 5.34473 3.65527 5.34473H1.46777ZM1.46777 4.29199H3.4502C4.02441 4.29199 4.48242 4.14844 4.82422 3.86133C5.17057 3.57422 5.34375 3.18457 5.34375 2.69238C5.34375 2.14551 5.18424 1.74902 4.86523 1.50293C4.54622 1.25228 4.06087 1.12695 3.40918 1.12695H1.46777V4.29199ZM13.2461 10C13.1732 9.85417 13.1139 9.5944 13.0684 9.2207C12.4805 9.83138 11.7786 10.1367 10.9629 10.1367C10.2337 10.1367 9.63444 9.93164 9.16504 9.52148C8.7002 9.10677 8.46777 8.58268 8.46777 7.94922C8.46777 7.17904 8.75944 6.58203 9.34277 6.1582C9.93066 5.72982 10.7555 5.51562 11.8174 5.51562H13.0479V4.93457C13.0479 4.49251 12.9157 4.1416 12.6514 3.88184C12.387 3.61751 11.9974 3.48535 11.4824 3.48535C11.0312 3.48535 10.653 3.59928 10.3477 3.82715C10.0423 4.05501 9.88965 4.33073 9.88965 4.6543H8.61816C8.61816 4.28516 8.74805 3.92969 9.00781 3.58789C9.27214 3.24154 9.6276 2.9681 10.0742 2.76758C10.5254 2.56706 11.0199 2.4668 11.5576 2.4668C12.4098 2.4668 13.0775 2.68099 13.5605 3.10938C14.0436 3.5332 14.2943 4.11882 14.3125 4.86621V8.27051C14.3125 8.94954 14.3991 9.48958 14.5723 9.89062V10H13.2461ZM11.1475 9.03613C11.5439 9.03613 11.9199 8.93359 12.2754 8.72852C12.6309 8.52344 12.8883 8.25684 13.0479 7.92871V6.41113H12.0566C10.5072 6.41113 9.73242 6.86458 9.73242 7.77148C9.73242 8.16797 9.86458 8.47786 10.1289 8.70117C10.3932 8.92448 10.7327 9.03613 11.1475 9.03613ZM17.6758 2.60352V8.96777H20.3828V2.60352H21.6475V8.96777H24.3477V2.60352H25.6191V10H16.4043V2.60352H17.6758ZM30.6846 10.1367C29.682 10.1367 28.8662 9.80859 28.2373 9.15234C27.6084 8.49154 27.2939 7.6097 27.2939 6.50684V6.27441C27.2939 5.54069 27.4329 4.88672 27.7109 4.3125C27.9935 3.73372 28.3854 3.28255 28.8867 2.95898C29.3926 2.63086 29.9395 2.4668 30.5273 2.4668C31.4889 2.4668 32.2363 2.78353 32.7695 3.41699C33.3027 4.05046 33.5693 4.95736 33.5693 6.1377V6.66406H28.5586C28.5768 7.39323 28.7887 7.9834 29.1943 8.43457C29.6045 8.88118 30.124 9.10449 30.7529 9.10449C31.1995 9.10449 31.5778 9.01335 31.8877 8.83105C32.1976 8.64876 32.4688 8.40723 32.7012 8.10645L33.4736 8.70801C32.8538 9.66048 31.9242 10.1367 30.6846 10.1367ZM30.5273 3.50586C30.0169 3.50586 29.5885 3.69271 29.2422 4.06641C28.8958 4.43555 28.6816 4.95508 28.5996 5.625H32.3047V5.5293C32.2682 4.88672 32.0951 4.38997 31.7852 4.03906C31.4753 3.68359 31.056 3.50586 30.5273 3.50586ZM43.2969 2.60352H44.5615V10H43.2969V4.60645L39.8857 10H38.6211V2.60352H39.8857V8.00391L43.2969 2.60352ZM50.8506 8.3252L53.3662 2.60352H54.9453V10H53.6807V4.62012L51.2881 10H50.4131L47.9727 4.50391V10H46.708V2.60352H48.3486L50.8506 8.3252ZM62.6357 2.60352V10H61.3643V7.12207H59.457L57.7139 10H56.3467L58.2061 6.93066C57.7321 6.75749 57.3675 6.49089 57.1123 6.13086C56.8617 5.76628 56.7363 5.34245 56.7363 4.85938C56.7363 4.1849 56.9893 3.64258 57.4951 3.23242C58.001 2.81771 58.6777 2.60807 59.5254 2.60352H62.6357ZM58.0078 4.87305C58.0078 5.23307 58.1309 5.52474 58.377 5.74805C58.623 5.9668 58.9489 6.07845 59.3545 6.08301H61.3643V3.62891H59.5459C59.0765 3.62891 58.7028 3.74512 58.4248 3.97754C58.1468 4.2054 58.0078 4.50391 58.0078 4.87305Z" fill="#949494"/>
</svg>
